<svg width="558" height="558" viewBox="0 0 558 558" fill="none" xmlns="http://www.w3.org/2000/svg">
<path d="M359.579 240.516C337.701 240.516 319.961 258.25 319.961 280.134C319.961 302.012 337.701 319.752 359.579 319.752C381.457 319.752 399.197 302.012 399.197 280.134C399.197 258.25 381.457 240.516 359.579 240.516Z" fill="#004AAD"/>
<path d="M359.735 247.922C341.862 247.922 327.371 262.412 327.371 280.286C327.371 298.165 341.862 312.65 359.735 312.65C377.609 312.65 392.099 298.165 392.099 280.286C392.099 262.412 377.609 247.922 359.735 247.922Z" fill="white"/>
<path d="M336.043 267.98H390.128V287.441H336.043V267.98Z" fill="#FFDE59"/>
<path d="M336.044 274.159V287.441L329.865 292.271V272.811L336.044 267.98V274.159Z" fill="#FF914D"/>
<path d="M390.129 287.441L383.951 292.272H329.865L336.044 287.441H390.129Z" fill="#FFBD59"/>
<path d="M372.023 256.551V310.636H352.562V256.551H372.023Z" fill="#FFDE59"/>
<path d="M365.844 256.552H352.563L347.732 250.379H367.187L372.023 256.552H365.844Z" fill="#FF914D"/>
<path d="M352.563 310.637L347.732 304.464V250.379L352.563 256.552V310.637Z" fill="#FFBD59"/>
<path d="M46.2278 257.582C41.1709 257.582 37.23 259.651 34.3935 263.79C31.5686 267.928 30.162 273.636 30.162 280.902C30.162 296.014 35.9106 303.571 47.4135 303.571C50.8836 303.571 54.249 303.094 57.504 302.129C60.7706 301.153 64.0489 299.984 67.3388 298.618V316.567C60.7823 319.468 53.3713 320.915 45.1118 320.915C33.2543 320.915 24.1635 317.486 17.8395 310.615C11.5155 303.733 8.35352 293.794 8.35352 280.786C8.35352 272.666 9.87639 265.528 12.9338 259.372C16.0028 253.205 20.4086 248.462 26.163 245.143C31.9116 241.83 38.6715 240.168 46.437 240.168C54.9291 240.168 63.0433 242.016 70.7798 245.701L64.293 262.418C61.3751 261.058 58.4689 259.907 55.5743 258.977C52.6738 258.047 49.5583 257.582 46.2278 257.582Z" fill="#004AAD"/>
<path d="M121.109 319.844L117.086 311.777H116.668C113.831 315.299 110.937 317.699 107.996 318.984C105.066 320.269 101.276 320.914 96.6263 320.914C90.8894 320.914 86.3731 319.205 83.0716 315.776C79.7817 312.335 78.1426 307.499 78.1426 301.268C78.1426 294.775 80.3978 289.945 84.9083 286.783C89.4188 283.609 95.9521 281.825 104.508 281.435L114.668 281.11V280.25C114.668 275.245 112.192 272.74 107.252 272.74C102.817 272.74 97.1727 274.245 90.3256 277.25L84.2573 263.393C91.3544 259.737 100.311 257.906 111.134 257.906C118.929 257.906 124.968 259.848 129.246 263.719C133.536 267.578 135.686 272.984 135.686 279.924V319.844H121.109ZM105.531 306.08C108.071 306.08 110.251 305.284 112.064 303.686C113.878 302.075 114.785 299.977 114.785 297.385V292.665L109.949 292.874C103.032 293.124 99.5791 295.664 99.5791 300.5C99.5791 304.22 101.561 306.08 105.531 306.08Z" fill="#004AAD"/>
<path d="M186.702 257.906C188.527 257.906 190.265 258.046 191.91 258.325L193.096 258.557L191.212 278.366C189.503 277.948 187.126 277.738 184.075 277.738C179.483 277.738 176.152 278.785 174.077 280.877C171.996 282.97 170.962 285.986 170.962 289.921V319.844H149.967V258.976H165.591L168.869 268.694H169.892C171.642 265.474 174.083 262.87 177.216 260.882C180.36 258.9 183.522 257.906 186.702 257.906Z" fill="#004AAD"/>
<path d="M230.978 320.914C220.841 320.914 212.965 318.228 207.356 312.846C201.759 307.452 198.963 299.774 198.963 289.805C198.963 279.529 201.555 271.647 206.752 266.16C211.942 260.661 219.353 257.906 228.979 257.906C238.151 257.906 245.236 260.301 250.229 265.091C255.216 269.868 257.716 276.75 257.716 285.737V295.083H220.167C220.318 298.478 221.568 301.145 223.91 303.081C226.247 305.022 229.444 305.987 233.489 305.987C237.174 305.987 240.569 305.639 243.673 304.941C246.771 304.244 250.125 303.052 253.74 301.361V316.45C250.45 318.141 247.05 319.304 243.533 319.937C240.028 320.588 235.843 320.914 230.978 320.914ZM229.746 272.205C227.264 272.205 225.189 272.99 223.515 274.553C221.853 276.105 220.888 278.541 220.609 281.854H238.651C238.587 278.924 237.756 276.588 236.163 274.832C234.564 273.083 232.425 272.205 229.746 272.205Z" fill="#004AAD"/>
<path d="M305.473 319.847H284.269V258.653H265.088V241.309H324.608V258.653H305.473V319.847Z" fill="#004AAD"/>
<path d="M440.621 276.299H474.496V318.614C465.289 321.764 455.175 323.334 444.155 323.334C432.047 323.334 422.695 319.834 416.092 312.825C409.489 305.803 406.188 295.794 406.188 282.786C406.188 270.126 409.797 260.268 417.022 253.212C424.259 246.161 434.396 242.633 447.433 242.633C452.374 242.633 457.041 243.098 461.43 244.028C465.812 244.958 469.637 246.138 472.892 247.562L466.173 264.209C460.511 261.419 454.303 260.024 447.549 260.024C441.347 260.024 436.558 262.041 433.181 266.069C429.798 270.103 428.112 275.857 428.112 283.344C428.112 290.679 429.635 296.271 432.693 300.13C435.744 303.978 440.156 305.896 445.922 305.896C449.084 305.896 451.978 305.588 454.617 304.966V292.667H440.621V276.299Z" fill="#004AAD"/>
<path d="M420.5 251C407.5 260 406.001 273 407.001 288" stroke="#004AAD"/>
<path d="M420.001 316C409 308 406.219 294.364 406.502 287" stroke="#004AAD" stroke-width="0.6"/>
<path d="M515.296 240.465C493.417 240.465 475.678 258.205 475.678 280.083C475.678 301.967 493.417 319.701 515.296 319.701C537.174 319.701 554.914 301.967 554.914 280.083C554.914 258.205 537.174 240.465 515.296 240.465Z" fill="#004AAD"/>
<path d="M515.452 247.875C497.578 247.875 483.088 262.366 483.088 280.239C483.088 298.112 497.578 312.603 515.452 312.603C533.325 312.603 547.816 298.112 547.816 280.239C547.816 262.366 533.325 247.875 515.452 247.875Z" fill="white"/>
<path d="M533.733 263.801H510.791L529.141 279.989L510.791 296.165H533.733L552.083 279.989L533.733 263.801Z" fill="#FFDE59"/>
<path d="M502.323 263.801H479.381L497.731 279.989L479.381 296.165H502.323L520.673 279.989L502.323 263.801Z" fill="#FFDE59"/>
<path d="M24 315C9.03521 305.5 8.70519 291 9.03517 282" stroke="#004AAD"/>
</svg>
